<?xml version="1.0" encoding="utf-8" ?><svg xmlns="http://www.w3.org/2000/svg" xmlns:xlink="http://www.w3.org/1999/xlink" width="2048" height="2048" viewBox="0 0 2048 2048"><path fill="#030303" d="M823.865 1444.03C822.821 1433.91 831.191 1382.17 807.388 1395.59C798.431 1400.64 783.875 1414.2 774.019 1421C646.328 1509 446.201 1450.63 389.756 1305.21C362.02 1232.5 367.537 1143.32 398.431 1071.65C465.017 917.158 629.971 914.101 773.421 921.659C781.905 921.777 809.438 927.405 811.625 914.334C831.459 795.797 580.662 769.807 555.317 876.016C554.445 878.278 550.893 888.445 548.442 888.779C517.01 893.069 484.612 889.014 452.81 892.231C445.772 892.944 439.213 887.894 439.256 880.512C439.843 779.497 531.622 729.64 621.042 719.474C742.731 705.993 927.34 710.165 985.752 840.146C997.123 865.449 995.491 924.113 995.323 952.271L994.884 1026.73C994.824 1042.29 994.409 1061.4 996.57 1076.63L996.774 1077.99C1020 1093.76 1020.32 1070.8 1020.9 1054.87C1027.86 866.298 1155.83 702.454 1358.51 720.253C1508.82 733.453 1604.36 861.851 1590.57 1010.07C1589.67 1019.69 1589.42 1021.51 1581.93 1027.85C1563.85 1027.68 1544.07 1025.12 1525.15 1024.9C1450.65 1024.05 1376.16 1024.19 1301.66 1024.06L1245.91 1023.9C1237.98 1023.88 1219.93 1023.37 1212.88 1024.84C1205.69 1033 1210.59 1038.93 1214.41 1047.68C1223.79 1069.11 1240.64 1091.41 1259.7 1105.22C1312.85 1143.73 1411.48 1144.91 1449.7 1084.71C1463.52 1081.06 1472.29 1082.11 1486.59 1082.05C1512.1 1081.95 1537.97 1083.91 1563.35 1080.4C1565.5 1080.11 1568.21 1081.23 1569.93 1082.16C1571.44 1084.6 1572.42 1086.76 1571.28 1089.74C1537.63 1177.83 1450.14 1228.61 1357.81 1227.68C1305.24 1227.15 1256.5 1217.24 1213.49 1186.14C1205.98 1180.71 1191.39 1167.1 1182.66 1168.31C1172.6 1174.63 1175.31 1192.02 1175.24 1202.44C1175.28 1235.04 1184.78 1265.4 1203.26 1292.47C1224.43 1323.16 1254.75 1343.92 1291.26 1351.76C1347.15 1363.74 1403.17 1347.54 1441.26 1304.21C1451.03 1293.1 1457.4 1268.11 1468.14 1263.2C1504.75 1264.27 1546.74 1264.21 1583.26 1263.35C1586.41 1264.49 1585.04 1263.61 1587.34 1266.36C1589.58 1275.71 1581.33 1294.84 1577.94 1304.42C1529.6 1440.33 1365.43 1490.31 1235.95 1451.62C1128.06 1419.39 1052.13 1333.2 1025.54 1225.3C1024.51 1221.15 1022.17 1204.46 1019.88 1202.01C1011.95 1193.52 996.634 1194.82 995.924 1208.85C995.113 1231.31 995.874 1253.08 995.853 1275.21L995.739 1434.09C993.36 1437.38 990.66 1440.64 988.115 1443.82C969.479 1444.72 944.662 1443.95 925.643 1443.93L823.865 1444.03ZM797.74 1154.11C773.954 1136.23 707.664 1137.45 678.02 1140.75C637.543 1145.26 589.074 1162.46 555.839 1185.82C543.472 1195.4 532.631 1202.97 531.947 1220.25C531.027 1249.49 542.165 1286.96 562.017 1308.82C637.148 1391.42 805.529 1355.26 812.245 1233.99C813.49 1211.51 814.936 1184.52 805.301 1163.61C804.092 1160.99 799.79 1156.4 797.74 1154.11ZM1338.88 931.844L1394.76 932.125C1407.09 932.283 1438.26 934.52 1446.09 926.559C1456.27 916.223 1441.64 882.662 1436.37 873.436C1410.52 828.177 1368.7 811.638 1318.5 815.476C1263.24 817.257 1212.07 866.866 1207.67 921.86C1207.08 929.227 1212.96 931.347 1219.01 931.623C1232.63 932.244 1246.35 932.01 1259.99 931.987L1338.88 931.844ZM805.767 1054.15C814.487 1042.06 812.056 1019.71 811.383 1005.26C811.143 1000.1 809.089 997.661 805.428 994.249C799.809 992.036 796.915 992.232 790.997 992.288C766.262 992.271 741.533 992.215 716.803 992.552C668.06 993.216 625.479 997.261 586.99 1030.16C582.818 1033.15 577.363 1038.66 573.961 1042.66L570.656 1046.19C567.342 1050.33 564.006 1054.62 560.549 1058.62C558.148 1067.81 537.132 1095.37 551.114 1104.77C558.12 1106.29 569.466 1103.52 576.046 1101.11C646.628 1075.29 720.232 1066.96 794.29 1058.89C796.733 1058.63 803.173 1055.41 805.767 1054.15Z"/><path fill="#EDEDEE" fill-opacity="0.0078431377" d="M599.651 1174.67C603.418 1174.13 607.276 1173.74 610.271 1171.46C628.781 1157.34 635.908 1152.45 658.419 1147.61C687.491 1141.37 713.168 1140.45 742.96 1141.13C751.854 1141.34 756.897 1145.81 765.451 1145.44C774.211 1144 782.1 1149.09 790.53 1151.56C793.664 1152.48 793.302 1153.34 797.74 1154.11C799.79 1156.4 804.092 1160.99 805.301 1163.61C814.936 1184.52 813.49 1211.51 812.245 1233.99C805.529 1355.26 637.148 1391.42 562.017 1308.82C542.165 1286.96 531.027 1249.49 531.947 1220.25C532.631 1202.97 543.472 1195.4 555.839 1185.82C563.664 1185.27 573.231 1175.87 577.826 1179.92L577.023 1181.12C568.838 1184.29 567.473 1188.27 560.521 1193.69C559.351 1196.34 558.483 1197.48 559.101 1200.27C565.22 1200.49 588.323 1182.63 595.528 1179.48C596.405 1179.1 598.998 1175.68 599.651 1174.67Z"/><path fill="#EDEDEE" fill-opacity="0.031372551" d="M586.99 1030.16C625.479 997.261 668.06 993.216 716.803 992.552C741.533 992.215 766.262 992.271 790.997 992.288C791.293 994.399 791.464 995.803 792.374 997.737L714.601 997.852C701.154 997.966 684.477 997.448 671.623 999.816L675.128 1001.52L674.672 1001.38L674.16 1002.88C665.715 1003.76 659.416 1009.74 651.783 1012.96C641.964 1017.11 631.311 1019.88 622.064 1025.33C616.016 1029.36 604.906 1039.83 598.213 1042.76L600.339 1038.6C604.902 1036.27 616.273 1028.2 617.127 1023.32C607.028 1019.37 606.618 1028.06 601.203 1030.37C593.442 1032.34 594.296 1035.16 587.782 1038.86L586.341 1038.41C585.211 1034.85 586.04 1034.45 586.99 1030.16Z"/><path fill="#C4C4C6" fill-opacity="0.1254902" d="M555.839 1185.82C589.074 1162.46 637.543 1145.26 678.02 1140.75C707.664 1137.45 773.954 1136.23 797.74 1154.11C793.302 1153.34 793.664 1152.48 790.53 1151.56C782.1 1149.09 774.211 1144 765.451 1145.44C756.897 1145.81 751.854 1141.34 742.96 1141.13C713.168 1140.45 687.491 1141.37 658.419 1147.61C635.908 1152.45 628.781 1157.34 610.271 1171.46C607.276 1173.74 603.418 1174.13 599.651 1174.67C598.998 1175.68 596.405 1179.1 595.528 1179.48C588.323 1182.63 565.22 1200.49 559.101 1200.27C558.483 1197.48 559.351 1196.34 560.521 1193.69C567.473 1188.27 568.838 1184.29 577.023 1181.12L577.826 1179.92C573.231 1175.87 563.664 1185.27 555.839 1185.82Z"/><defs><linearGradient id="gradient_0" gradientUnits="userSpaceOnUse" x1="562.86584" y1="1071.8005" x2="585.84985" y2="1064.9873"><stop offset="0" stop-color="#EAEAEB" stop-opacity="0"/><stop offset="1" stop-color="#D4D3D3" stop-opacity="0.050980393"/></linearGradient></defs><path fill="url(#gradient_0)" d="M586.99 1030.16C586.04 1034.45 585.211 1034.85 586.341 1038.41L587.782 1038.86C594.296 1035.16 593.442 1032.34 601.203 1030.37C595.966 1035.1 585.042 1042.82 584.555 1048.85L585.409 1049.59C593.206 1046.87 595.135 1040.85 600.339 1038.6L598.213 1042.76C589.288 1050.84 579.955 1058.14 575.556 1069.93C572.012 1079.43 570.913 1075.21 574.16 1086.84L572.892 1088.25C568.559 1087.47 565.05 1081.38 565.412 1077.02C565.927 1070.82 570.944 1064.58 567.541 1058.43C565.199 1058.48 562.892 1058.53 560.549 1058.62C564.006 1054.62 567.342 1050.33 570.656 1046.19C570.271 1050.15 569.507 1053.04 571.113 1056.58L572.577 1056.88C575.202 1053.77 582.56 1045.99 582.77 1042.65C579.874 1041.14 577.958 1042.16 573.961 1042.66C577.363 1038.66 582.818 1033.15 586.99 1030.16Z"/><path fill="#EDEDEE" fill-opacity="0.015686275" d="M805.428 994.249C809.089 997.661 811.143 1000.1 811.383 1005.26C812.056 1019.71 814.487 1042.06 805.767 1054.15C804.54 1037.65 806.574 1013.74 805.428 994.249Z"/><path fill="#C4C4C6" fill-opacity="0.19607843" d="M601.203 1030.37C606.618 1028.06 607.028 1019.37 617.127 1023.32C616.273 1028.2 604.902 1036.27 600.339 1038.6C595.135 1040.85 593.206 1046.87 585.409 1049.59L584.555 1048.85C585.042 1042.82 595.966 1035.1 601.203 1030.37Z"/><path fill="#EDEDEE" fill-opacity="0.023529412" d="M573.961 1042.66C577.958 1042.16 579.874 1041.14 582.77 1042.65C582.56 1045.99 575.202 1053.77 572.577 1056.88L571.113 1056.58C569.507 1053.04 570.271 1050.15 570.656 1046.19L573.961 1042.66Z"/><path fill="#030303" d="M1590.94 1138.04C1595.52 1135.43 1596.79 1125.4 1607 1118.08C1620.96 1108.07 1634.63 1104.23 1651.68 1106.39C1672.04 1108.97 1681.83 1119.88 1693.2 1135.1C1702.38 1148.96 1702.94 1163.42 1697.98 1179.49C1694.45 1190.92 1688.7 1193.65 1683.34 1202.07C1678.09 1207.95 1670.93 1210.81 1663.83 1214.13C1649.54 1220.8 1636.19 1220.68 1621.67 1214.83C1604.74 1208.02 1598.96 1195.83 1592.2 1180.36C1590.95 1167.16 1589.52 1151.25 1590.94 1138.04Z"/><path fill="#030303" d="M1700.45 1139.75C1713.02 1129.9 1730.04 1136.73 1738.35 1149C1745.07 1158.92 1744.34 1165.2 1743.86 1176.43C1737.58 1186.62 1732.51 1195.03 1719.64 1198.04C1712.33 1199.75 1706.5 1198.53 1700.59 1193.95C1700.66 1190.2 1702.45 1185.62 1703.31 1181.66C1706.98 1164.89 1706.79 1155.33 1700.45 1139.75Z"/><path fill="#EDEDEE" fill-opacity="0.011764706" d="M1212.88 1024.84C1219.93 1023.37 1237.98 1023.88 1245.91 1023.9L1301.66 1024.06C1376.16 1024.19 1450.65 1024.05 1525.15 1024.9C1544.07 1025.12 1563.85 1027.68 1581.93 1027.85L1580.87 1029.69C1579.44 1030.39 1419.06 1030.91 1402.96 1029.73L1403.7 1027.73C1387.15 1025.75 1370.57 1027.07 1354.1 1026.4C1317.49 1024.91 1280.98 1025.64 1244.36 1025.57C1234.46 1025.55 1222.6 1026.11 1212.88 1024.84Z"/><path fill="#EDEDEE" fill-opacity="0.011764706" d="M1468.14 1263.2C1468.66 1259.45 1467.96 1259.61 1470.15 1257.88C1498.35 1257.16 1527.56 1257.98 1555.82 1258.31C1560.7 1258.37 1578.13 1257.5 1581.66 1258.28C1582.54 1260.48 1582.75 1261.05 1583.26 1263.35C1546.74 1264.21 1504.75 1264.27 1468.14 1263.2Z"/><path fill="#EDEDEE" fill-opacity="0.023529412" d="M1592.2 1180.36C1590.35 1177.81 1590.71 1177.63 1588.22 1176.29C1582.14 1179.09 1586.43 1180.46 1582.56 1182.01L1581.79 1181.42L1584.2 1180.8L1584.04 1181.16L1581.51 1181.03C1575 1170.04 1573.43 1141.04 1590.94 1138.04C1589.52 1151.25 1590.95 1167.16 1592.2 1180.36Z"/><path fill="#C4C4C6" fill-opacity="0.90196079" d="M1693.2 1135.1L1700.45 1139.75C1706.79 1155.33 1706.98 1164.89 1703.31 1181.66C1702.45 1185.62 1700.66 1190.2 1700.59 1193.95C1693.05 1191.44 1689.13 1197.92 1683.34 1202.07C1688.7 1193.65 1694.45 1190.92 1697.98 1179.49C1702.94 1163.42 1702.38 1148.96 1693.2 1135.1Z"/></svg>